<?xml version="1.0" encoding="UTF-8" standalone="no"?><!DOCTYPE svg PUBLIC "-//W3C//DTD SVG 1.1//EN" "http://www.w3.org/Graphics/SVG/1.1/DTD/svg11.dtd"><svg width="100%" height="100%" viewBox="0 0 512 512" version="1.1" xmlns="http://www.w3.org/2000/svg" xmlns:xlink="http://www.w3.org/1999/xlink" xml:space="preserve" xmlns:serif="http://www.serif.com/" style="fill-rule:evenodd;clip-rule:evenodd;stroke-linejoin:round;stroke-miterlimit:2;"><g><rect x="0" y="0" width="512" height="512" style="fill:#e81c1c;"/><g><path d="M283.545,31.859c34.318,2.059 71.252,8.578 101.083,36.099c31.542,29.098 42.352,80.108 24.25,115.269c-7.409,14.391 -18.936,24.729 -33.036,32.258c-32.49,17.35 -66.589,20.364 -101.801,10.345c-11.372,-3.236 -18.26,-11.695 -21.864,-22.853c-1.064,-3.294 -2.212,-6.564 -3.423,-9.807c-0.652,-1.746 -3.011,-3.306 -0.915,-5.314c1.753,-1.68 3.728,-0.181 5.682,0.076c34.436,4.536 67.032,-0.93 96.25,-20.201c16.021,-10.567 23.241,-26.503 20.287,-45.86c-3.354,-21.983 -16.985,-35.233 -37.529,-42.392c-23.185,-8.079 -46.39,-4.554 -69.543,-0.442c-17.986,3.194 -35.647,7.52 -51.334,17.718c-24.905,16.191 -35.295,43.316 -28.678,72.237c5.583,24.4 18.772,44.529 33.013,64.3c26.656,37.004 59.63,68.571 88.967,103.272c15.999,18.924 29.747,39.085 39.165,62.113c9.653,23.603 2.517,48.072 -18.504,62.81c-15.072,10.567 -31.981,16.394 -50.086,17.928c-52.001,4.407 -97.635,-11.277 -137.272,-44.927c-1.543,-1.31 -2.954,-2.786 -4.345,-4.261c-25.941,-27.502 -16.427,-65.784 19.182,-79.05c23.385,-8.712 47.057,-11.785 71.677,-7.321c7.468,1.354 12.578,4.352 11.499,13.092c-0.982,7.954 -5.177,11.438 -14.226,11.76c-18.205,0.649 -34.826,5.535 -48.104,18.723c-12.143,12.061 -12.866,23.411 -2.231,36.862c12.676,16.032 30.453,22.331 49.819,25.415c18.247,2.906 36.355,1.488 54.286,-2.198c20.183,-4.149 31.575,-22.226 27.12,-42.289c-3.319,-14.946 -10.081,-28.129 -19.495,-40.221c-19.32,-24.814 -42.723,-45.599 -65.349,-67.159c-28.949,-27.585 -58.363,-54.793 -78.421,-90.053c-13.288,-23.358 -21.687,-48.498 -18.957,-75.524c3.523,-34.878 24.356,-58.883 53.929,-75.371c32.385,-18.056 67.976,-24.033 108.9,-25.031Z" style="fill:#fff;fill-rule:nonzero;"/></g></g></svg>