<?xml version="1.0" encoding="utf-8"?>
<!-- Generator: Adobe Illustrator 28.0.0, SVG Export Plug-In . SVG Version: 6.00 Build 0)  -->
<svg version="1.1" id="Layer_1" xmlns="http://www.w3.org/2000/svg" xmlns:xlink="http://www.w3.org/1999/xlink" x="0px" y="0px"
	 viewBox="0 0 328.11319 213.31796" style="enable-background:new 0 0 328.11319 213.31796;" xml:space="preserve">
<style type="text/css">
	.st0{fill:#FFFFFF;}
	.st1{fill:#D50D18;}
</style>
<g>
	<g>
		<path class="st0" d="M40.06758,0c8.36591,0.50197,17.36965,2.09116,24.64195,8.80013
			c7.68916,7.09352,10.32449,19.52859,5.91161,28.10027c-1.80611,3.50825-4.61628,6.02831-8.05338,7.86372
			c-7.92044,4.22949-16.23295,4.96424-24.81683,2.52179c-2.7723-0.78881-4.45144-2.85097-5.32999-5.57117
			c-0.25936-0.80309-0.53926-1.60019-0.83435-2.39086c-0.15886-0.42568-0.734-0.80584-0.22314-1.29552
			c0.42738-0.40966,0.9089-0.04422,1.38524,0.01854c8.3947,1.10572,16.34098-0.22678,23.46371-4.92455
			c3.9056-2.57593,5.66555-6.46089,4.94564-11.1798c-0.81754-5.35899-4.14069-8.58907-9.14884-10.33432
			c-5.65194-1.96958-11.30895-1.11024-16.95314-0.10784c-4.3845,0.77866-8.68996,1.83323-12.51407,4.31925
			c-6.07129,3.94692-8.60411,10.55947-6.991,17.60978c1.36098,5.9483,4.57613,10.85525,8.04799,15.675
			c6.49808,9.02082,14.53644,16.71627,21.68825,25.17562c3.90015,4.61319,7.25177,9.52815,9.54766,15.14183
			c2.35323,5.75389,0.61364,11.71896-4.51093,15.31183c-3.67419,2.57602-7.79624,3.99646-12.2099,4.37051
			c-12.6768,1.07433-23.80146-2.74902-33.46399-10.95215c-0.37611-0.31929-0.7201-0.67915-1.05927-1.03875
			c-6.32375-6.70443-4.00452-16.03666,4.67626-19.27075c5.70082-2.12388,11.47142-2.87293,17.47336-1.78474
			c1.82047,0.33009,3.06614,1.06093,2.80324,3.1915c-0.23927,1.93913-1.26195,2.78825-3.46792,2.86684
			c-4.43801,0.15814-8.48989,1.34932-11.72664,4.56416c-2.96019,2.94016-3.13647,5.70704-0.54391,8.98616
			c3.09003,3.90831,7.4237,5.44379,12.14487,6.19575c4.44815,0.70848,8.86252,0.36266,13.23387-0.53589
			c4.92017-1.01136,7.69723-5.41828,6.61127-10.30906c-0.80902-3.64352-2.45753-6.85731-4.75257-9.80505
			c-4.70971-6.0491-10.415-11.11619-15.9306-16.37199c-7.05713-6.72475-14.22763-13.35737-19.11749-21.953
			c-3.23931-5.69421-5.28692-11.8228-4.62133-18.41125c0.85894-8.50253,5.9374-14.35437,13.14686-18.37393
			C21.41489,1.7004,30.09109,0.24334,40.06758,0z"/>
		<path class="st0" d="M324.43948,54.57419c-1.56079-0.36111-2.31937,0.07997-2.6778,1.71106
			c-1.90591,8.68711-6.33978,16.09113-11.93427,22.85557c-1.2049,1.45725-2.43695,2.98088-4.35172,3.98299
			c0.55502-2.61187,1.08731-4.99822,1.56522-7.39516c1.35089-6.76318,1.83447-13.57582,0.57587-20.39162
			c-1.40778-7.62163-8.42905-10.21849-14.17084-9.08142c-4.57166,0.90508-8.14328,3.4305-10.4715,7.57438
			c-0.37991,0.67624-0.59421,1.54876-1.57593,1.90213c-1.08096-5.70244-4.88144-8.74559-10.12195-9.55695
			c-7.53137-1.16599-12.26807,3.22837-15.82135,9.40555c-2.48749-3.46495-6.00285-5.11454-9.54034-6.67641
			c-1.91162-0.84376-2.70686-0.30943-3.11017,1.75073c-0.24338,1.24265-0.30217,2.5485-1.04494,3.63184
			c-4.27583,6.2336-7.95177,12.82246-11.56512,19.44909c-0.97665,1.79103-1.98746,3.56372-3.09877,5.55293
			c-0.13339-0.50967-0.20671-0.70911-0.23643-0.91472c-0.98677-6.90699-0.38814-13.83105,0.08345-20.71702
			c0.23264-3.39984-0.77248-5.47992-3.71954-6.98474c-4.22527-2.1572-8.72046-3.62267-13.1436-5.24919
			c-1.37807-0.50651-2.93695-1.08919-4.53311-0.78876c-3.95218,0.74372-7.29814,2.61535-9.92407,5.64554
			c-2.49571,2.8799-4.90419,5.83755-6.80632,9.16707c-2.45084,4.28911-4.94022,8.55595-7.37967,12.85138
			c-1.282,2.25755-2.49382,4.5554-3.8542,7.0497c-0.36539-1.42549-0.62582-2.57031-0.66754-3.77866
			c-0.22-6.35971,0.06638-12.70994,0.53099-19.04389c0.20229-2.75837-1.00131-4.32673-3.20624-5.59797
			c-4.12791-2.38034-8.64587-3.85909-13.08923-5.3979c-3.8131-1.32056-7.72862-0.92515-11.2699,1.56962
			c-4.68927,3.30407-7.49474,8.04896-9.8027,13.01684c-3.10068,6.67436-6.41122,13.19685-10.59097,19.25898
			c-0.55692,0.80804-1.18085,1.60439-1.90971,2.2536c-2.33515,2.07976-3.70628,1.67487-4.65323-1.31519
			c-0.36096-1.1396-0.72697-2.2841-0.9754-3.45088c-0.25033-1.17058-0.31734-2.32077,0.3224-3.47965
			c4.12412-7.47703,7.55795-15.27013,10.34571-23.33616c2.86804-8.29739,5.06285-16.6972,4.56093-25.64207
			c-0.32935-5.86253-4.53249-9.8264-9.13768-11.92196c-1.06263-0.48328-2.23716-0.50635-3.33899-0.27799
			c-3.66203,0.75921-6.66535,2.57252-8.90315,5.64886c-1.935,2.66007-3.34469,5.56984-4.41364,8.65155
			c-2.74605,7.92285-3.48692,16.11499-3.20688,24.44004c0.07143,2.11816,0.12833,4.21879-1.01839,6.16912
			c-3.43256,5.83898-6.82655,11.7004-10.20158,17.57257c-0.83949,1.46089-1.55128,2.99542-2.57157,4.98321
			c-0.23136-1.7953-0.47601-3.02972-0.53732-4.27315c-0.29837-6.07746,0.00316-12.15396,0.43491-18.20708
			c0.24022-3.36065-1.19412-5.1836-3.95407-6.70107c-3.55519-1.95475-7.49094-2.85762-11.17825-4.45094
			c-6.49847-2.80752-12.74281-0.87489-16.72154,4.98764c-4.56473,6.72588-5.3998,14.2391-3.94522,22.11169
			c0.85276,4.6164,2.51215,8.8382,5.94281,12.16676c3.70943,3.59849,7.84241,3.59454,11.61948,0.11995
			c1.15366-1.06138,2.14613-2.24507,2.92114-3.5977c1.18085-2.06112,2.31429-4.14925,3.51727-6.31451
			c0.67071,0.43491,0.57146,0.98678,0.72823,1.44003c1.34078,3.87379,2.698,7.71313,6.54145,9.98301
			c3.51979,2.07897,7.41698,1.6458,10.14026-1.33999c2.38889-2.61961,4.11464-5.70876,6.02373-8.671
			c1.19412-1.8525,2.08734-3.92657,3.87126-5.74715c0.78386,3.60387,2.04562,6.66314,4.42187,9.23455
			c2.16383,2.34147,4.46864,4.52791,6.90556,6.55457c1.89138,1.57246,3.98569,2.95244,6.57433,3.16769
			c4.36118,0.36253,6.94666-2.19038,8.96004-5.57301c1.7738-2.97993,3.45847-6.01282,5.3252-9.27184
			c0.93495,3.01486,2.01338,5.61536,3.69617,7.90151c3.42371,4.65292,9.19521,7.64201,14.7562,0.88817
			c0.84834-1.03056,1.60817-2.14883,2.29089-3.29665c0.9969-1.67614,1.88696-3.4158,2.86679-5.20968
			c0.80408,0.85324,0.86667,1.80683,1.15935,2.64948c0.69409,2.0028,1.50577,3.94254,2.79977,5.6367
			c3.51852,4.60629,10.15987,6.78767,14.84343,0.17289c0.97731-1.37997,1.89455-2.80357,2.8042-4.22953
			c1.25987-1.97609,2.48688-3.97336,3.94208-6.30472c1.01901,3.95329,2.23274,7.29719,4.44588,10.2177
			c3.52802,4.65623,8.55989,5.55688,12.59552,2.14787c1.80035-1.52094,3.17401-3.39906,4.31883-5.44199
			c0.87994-1.56851,1.70616-3.16658,2.75552-5.12291c0.33755,0.9961,0.53226,1.63251,0.76678,2.25375
			c1.24722,3.30186,2.47676,6.56358,5.59639,8.7271c4.13551,2.8682,8.41893,2.44593,11.58282-1.4353
			c2.18723-2.68298,3.87506-5.71128,5.74052-8.61631c0.71306-1.10989,1.2213-2.42144,2.58359-3.36223
			c0.26486,2.27083,0.49496,4.29243,0.73645,6.31277c0.75162,6.28385,3.71069,9.69997,9.40065,10.86028
			c2.97487,0.6067,4.15825-0.38561,3.43254-3.2151c-1.51019-5.88449-1.48111-11.31463,2.13792-16.70763
			c3.28275-4.89076,5.56351-10.43879,9.06055-15.24247c0.36096-0.49607,0.68588-1.24106,1.43307-1.06422
			c0.69473,0.16452,0.74847,0.93036,0.85468,1.53327c0.25665,1.45947,0.33377,2.90155,0.14917,4.40732
			c-0.91028,7.4391-1.64548,14.83474,0.58221,22.26135c1.48618,4.95319,4.36499,7.05618,9.52582,8.05671
			c3.13419,0.60765,3.71451-0.34341,2.78839-3.42497c-1.23709-4.11796-1.8623-8.46397-0.04236-12.41772
			c2.40848-5.23244,5.43143-10.18719,8.28241-15.20865c0.93494-1.64563,2.09872-3.17401,3.26944-4.66809
			c0.81042-1.03356,1.48807-0.90286,1.8168,0.48438c0.44882,1.89518,0.26233,3.7766,0.11316,5.68268
			c-0.37994,4.85378-0.91473,9.71277-0.93497,14.57161c-0.01578,3.88154,0.39069,8.00661,3.57544,10.74997
			c5.29358,4.55983,13.39706,5.55372,19.14392,0.40916c3.13608-2.80721,5.12228-6.3131,6.49719-10.21675
			c1.8269-5.19009,3.0697-10.54484,4.47308-15.85597C328.66727,56.9528,327.73044,55.33514,324.43948,54.57419z M81.75784,55.84496
			c-0.23705,6.33411-2.97298,11.7919-5.97694,17.15251c-1.13534,2.02666-2.39204,3.98457-3.99896,5.68331
			c-0.62898,0.6647-1.36859,1.5064-2.31871,1.13027c-0.93494-0.37012-0.54554-1.47733-0.61318-2.28616
			c-0.04109-0.48975-0.00695-0.98599-0.00695-1.47922c0.28383-6.42893,0.97729-12.75846,4.53439-18.38029
			c1.1385-1.79862,2.47232-3.43398,4.25624-4.62305c0.93747-0.62472,2.0747-1.29953,3.11774-0.48075
			C81.73508,53.33376,81.80398,54.602,81.75784,55.84496z M120.36175,57.99015c-0.76553-9.83272-0.03793-19.46363,3.11016-28.83283
			c1.02155-3.04062,2.54755-5.77892,4.60709-8.23071c0.31796-0.3785,0.60307-0.92167,1.15936-0.73345
			c0.50824,0.17194,0.54111,0.77106,0.59674,1.2537c0.31418,2.71918-0.26424,5.36171-0.91156,7.95193
			c-1.94574,7.78646-3.66076,15.63488-6.16975,23.27595C122.14377,54.53262,121.44272,56.32429,120.36175,57.99015z
			 M163.00572,64.47313c-1.78772,4.55493-4.06281,8.83282-6.88788,12.82293c-0.20291,0.28699-0.42543,0.56893-0.68019,0.80899
			c-0.85086,0.8014-1.63283,2.1956-2.90976,1.68625c-1.11131-0.44313-0.46463-1.9015-0.61066-2.90677
			c-0.04994-0.34563-0.00758-0.70468-0.00758-1.05774c0.50508-6.85357,1.18654-13.64788,5.48196-19.43961
			c0.97858-1.31945,2.07344-2.49239,3.4648-3.36713c0.9084-0.57114,1.9211-1.15825,2.9458-0.50066
			c0.9931,0.63752,0.98552,1.83733,0.98174,2.88464C164.77257,58.53427,164.15559,61.54329,163.00572,64.47313z M211.69617,66.4941
			c-1.68657,3.79841-3.52739,7.51891-6.12045,10.80765c-0.39192,0.49686-0.78828,0.99689-1.23584,1.44193
			c-0.59674,0.59343-1.25102,1.34932-2.15498,1.09503c-1.1347-0.31923-0.57272-1.43181-0.68588-2.19323
			c-0.11252-0.75858-0.02402-1.54686-0.02402-2.32203c0.36285-6.29808,1.15808-12.4811,4.76764-17.91629
			c1.05696-1.59159,2.20177-3.09373,3.83018-4.16743c0.9577-0.63183,1.96976-1.39167,3.09625-0.75146
			c1.07401,0.61034,1.12964,1.81948,1.14102,2.9929C214.34738,59.37455,213.24998,62.99327,211.69617,66.4941z"/>
		<path class="st0" d="M277.8092,162.91507c-1.60504-2.72043-5.91437-2.85255-7.49411-0.18173
			c-4.33588,7.32957-8.86584,14.54932-12.80917,22.66466c-0.43933-2.47501-0.85339-4.50752-0.78955-6.60893
			c0.14856-4.86879,0.34073-9.73663,0.45892-14.60622c0.14224-5.90062-0.07269-6.21257-5.54834-8.58882
			c-1.2251-0.53163-2.46536-1.08176-3.75432-1.39877c-1.32118-0.32509-2.51404-0.83176-3.70564-1.47511
			c-7.19446-3.88533-15.17909-1.68752-19.51816,5.28522c-2.65248,4.26256-4.85867,8.75981-7.05286,13.26244
			c-2.50519,5.14124-5.26514,10.13219-8.72488,14.69708c-1.05568,1.39293-2.31682,2.99828-4.27837,2.62593
			c-1.85092-0.35115-1.6107-2.42285-2.14929-3.79762c-0.3047-0.77817-0.29521-1.6774-0.58664-2.463
			c-0.43239-1.16521-0.1947-2.14186,0.34895-3.21762c2.02792-4.01649,4.11464-8.01324,5.91499-12.13263
			c4.15131-9.49942,7.77161-19.19322,8.87849-29.59821c0.77122-7.24866,0.32114-14.08138-7.31456-18.0228
			c-1.9192-0.99042-3.79794-1.47733-5.88971-0.97493c-5.14188,1.23443-8.06177,4.98384-10.3002,9.3632
			c-4.6311,9.06119-5.74937,18.88506-5.52306,28.83899c0.09102,4.00291-1.44762,6.41661-4.68358,8.16101
			c-1.42358,0.76758-2.8965,1.44414-4.35675,2.1414c-1.23584,0.58963-1.93246,0.6127-1.80415-1.19019
			c0.15425-2.17743-0.14159-4.37366-0.69093-6.50082c-2.11642-8.201-9.93671-11.63466-17.36316-7.64977
			c-0.68272,0.36649-1.36418,0.74435-2.07408,1.05299c-5.34479,2.32378-9.66298,5.77197-12.10876,11.19942
			c-3.65001,8.09796-8.22801,15.59079-14.05577,22.32616c-5.83028,6.73836-12.24973,12.6837-20.51378,16.37259
			c-10.34698,4.61798-19.79756,3.31323-28.3347-4.16505c-7.85758-6.88281-12.90022-15.61307-16.30621-25.34338
			c-5.04263-14.40376-4.5641-28.37341,3.65317-41.63379c7.79563-12.58051,23.54114-18.46136,37.16579-14.11141
			c10.79832,3.44757,12.06641,13.20428,9.26853,20.08582c-0.71622,1.76147-1.63726,3.44078-2.48118,5.14915
			c-2.86552,5.79868-7.88349,8.57948-13.99255,9.31973c-3.63484,0.44044-5.65835,2.56035-7.44669,5.26973
			c-0.93937,1.42216-0.52468,2.70337,0.94569,3.32857c6.31641,2.68631,12.85723,3.86652,19.2065,0.53258
			c10.30715-5.41196,15.63804-14.28841,15.98383-25.82333c0.24464-8.1825-2.86552-15.04019-10.11561-19.52132
			c-7.95746-4.91794-16.79866-7.23965-25.93381-8.60762c-6.44094-0.9645-12.73332-0.24338-18.5516,2.73198
			c-10.79327,5.51927-17.01991,14.85339-20.56625,26.05107c-4.53186,14.30579-3.35733,28.51265,2.07217,42.33263
			c5.15895,13.13269,13.28014,23.97273,26.26695,30.31094c12.48931,6.09532,25.24287,6.87839,37.87379,0.30975
			c8.65724-4.50198,15.07732-11.50616,20.63515-19.36075c1.49249-2.10884,2.86299-4.30412,4.46611-6.72714
			c1.13976,2.59085,2.1512,4.89044,3.6772,6.92644c4.96361,6.62395,13.21819,7.28152,19.04277,1.44382
			c3.97557-3.98442,6.4144-8.86569,8.082-14.16356c0.32872-1.04462,0.66312-1.62714,1.94638-1.64421
			c3.89592-0.05199,7.25072-1.66666,10.17819-4.12334c1.38123-1.15952,1.64294-0.89275,1.8819,0.78592
			c0.77754,5.47218,1.87747,10.82945,5.93205,15.06357c2.30354,2.40501,4.66968,4.71535,7.34302,6.70171
			c2.41228,1.79262,5.05464,2.74747,8.09401,2.08719c2.85223-0.61951,4.49962-2.73624,6.00792-4.9783
			c2.02539-3.01013,3.65379-6.25778,5.65897-9.98508c0.72128,3.21083,1.8503,5.6653,3.32825,7.95067
			c4.1393,6.40269,10.84827,6.69711,15.468,0.67972c0.42732-0.55756,0.81926-1.14845,1.17578-1.75468
			c1.22385-2.08308,2.42493-4.17992,3.77771-6.51807c1.05252,3.22885,1.92741,6.1843,3.79414,8.68933
			c4.1039,5.50679,10.48985,5.74731,14.4926,0.24527c5.64886-7.76512,10.53027-16.00009,13.79596-25.09937
			C278.05701,164.23816,278.21439,163.60254,277.8092,162.91507z M168.1438,174.03391
			c-1.37808,4.755-2.79155,9.51001-7.25072,12.45833c-2.82253,1.8661-3.9174,1.35312-4.49898-2.00516
			c-0.09546-0.55234-0.1416-1.11322-0.18207-1.44098c0.38435-5.18518,1.62399-9.90874,3.60956-14.45372
			c0.3856-0.88358,0.63025-1.06737,1.41348-0.32903c1.88885,1.78012,3.80678,3.54619,6.22853,4.62083
			C167.95732,173.10338,168.30753,173.4686,168.1438,174.03391z M169.355,165.87747
			c-2.09177-1.48602-2.83202-3.34816-2.50645-5.67194c0.07901-0.55865,0.20987-1.18465,0.79144-1.37555
			c0.73329-0.24084,0.88058,0.49593,1.1581,0.93336C169.99472,161.65379,170.00864,163.646,169.355,165.87747z M199.89462,164.80504
			c0-3.56989-0.19659-6.99438,0.04172-10.38838c0.45009-6.39937,1.10878-12.78468,3.24481-18.91113
			c1.1012-3.15805,2.59242-6.0863,4.7569-8.64745c0.30659-0.36317,0.76111-0.90587,1.1012-0.87379
			c0.70421,0.06638,0.54744,0.86098,0.6821,1.37792c0.4229,1.6292,0.1163,3.26772-0.23579,4.82581
			c-2.36044,10.44131-4.7607,20.87631-8.38858,30.97549C200.90352,163.70337,200.92059,164.40932,199.89462,164.80504z
			 M243.79655,167.77359c-1.78076,5.60287-4.41428,10.78947-7.95682,15.49928c-0.08408,0.11237-0.17258,0.22284-0.26804,0.32603
			c-0.85023,0.92024-1.69542,2.49144-2.91356,2.11041c-1.37555-0.43018-0.60434-2.22041-0.85783-3.19724
			c0.27815-5.8434,0.75352-11.45908,3.26947-16.64331c1.35974-2.80167,2.99258-5.44925,5.8069-7.06691
			c2.44766-1.40637,3.73851-0.72588,3.87758,2.08955C244.86931,163.23131,244.5014,165.55556,243.79655,167.77359z"/>
	</g>
</g>
</svg>
